<?xml version="1.0" encoding="UTF-8" standalone="no"?><!DOCTYPE svg PUBLIC "-//W3C//DTD SVG 1.1//EN" "http://www.w3.org/Graphics/SVG/1.1/DTD/svg11.dtd"><svg width="100%" height="100%" viewBox="0 0 1000 250" version="1.1" xmlns="http://www.w3.org/2000/svg" xmlns:xlink="http://www.w3.org/1999/xlink" xml:space="preserve" xmlns:serif="http://www.serif.com/" style="fill-rule:evenodd;clip-rule:evenodd;stroke-linejoin:round;stroke-miterlimit:2;"><path d="M824.31,0l51.75,0l-70.12,250l-51.59,-0.03l69.96,-249.97Z" style="fill:#607d98;fill-rule:nonzero;"/><path d="M202.448,0l51.75,0l-70.12,250l-51.59,-0.03l69.96,-249.97Z" style="fill:#607d98;fill-rule:nonzero;"/><path d="M299.462,21.952c3.813,-0.093 6.974,2.537 7.056,5.869c0.081,3.333 -2.948,6.114 -6.76,6.207c-3.813,0.093 -6.974,-2.537 -7.056,-5.869c-0.081,-3.333 2.948,-6.114 6.76,-6.207Z"/><path d="M539.95,47.42l-3.14,-0.11c-0.59,-0.022 -1.062,-0.441 -1.06,-0.94c-0,-1.97 0.05,-3.88 -0.11,-5.82c-0.147,-1.64 0.877,-2.203 3.07,-1.69c0.054,0.013 0.109,0.022 0.165,0.028c0.796,0.091 1.525,-0.489 1.616,-1.285c0.006,-0.054 0.009,-0.109 0.009,-0.163c0.06,-10.71 11.61,-14.69 20.47,-10.84c0.282,0.122 0.428,0.427 0.33,0.69l-2.46,7.05c-0.09,0.262 -0.391,0.402 -0.67,0.31c-4.147,-1.453 -6.303,-0.313 -6.47,3.42c-0,0 -0,0 -0,0.001c-0.016,0.268 0.201,0.502 0.48,0.519l6.39,0.32c0.297,0.015 0.534,0.248 0.54,0.53l0.09,6.86c0,0.003 0,0.006 0,0.01c0.005,0.51 -0.437,0.934 -0.98,0.94c-0.003,-0 -0.007,-0 -0.01,-0l-5.55,-0c-0.362,0 -0.66,0.298 -0.66,0.66l-0,21.29c-0,0.439 -0.361,0.8 -0.8,0.8l-9.83,0c-0.477,0 -0.87,-0.393 -0.87,-0.87l-0.06,-21.08c0.002,-0.338 -0.217,-0.619 -0.49,-0.63Z" style="fill-rule:nonzero;"/><path d="M324.48,39.67c3.607,-2.22 7.343,-3.007 11.21,-2.36c21.65,3.64 14.93,40 -8.63,32.13c-0.8,-0.27 -4.8,-4.14 -3.49,-0.49c0.015,0.042 0.026,0.086 0.034,0.13c0.073,0.427 -0.208,0.837 -0.625,0.909c-0.046,0.008 -0.092,0.012 -0.139,0.011l-9.31,-0.05c-0.424,-0.005 -0.77,-0.356 -0.77,-0.78l0.17,-42.73c0,-0.296 0.226,-0.54 0.5,-0.54l9.88,0c0.282,0 0.515,0.242 0.52,0.54l0.24,13.01c0,0.32 0.137,0.393 0.41,0.22Zm6.238,21.899c0,0 0,0 0,0c3.747,-0.052 6.781,-3.598 6.721,-7.854c-0.059,-4.257 -3.191,-7.716 -6.937,-7.664c-0,-0 -0,-0 -0,-0c-3.747,0.052 -6.781,3.598 -6.721,7.854c0.059,4.257 3.191,7.716 6.937,7.664Z" style="fill-rule:nonzero;"/><path d="M580.08,43.97c3.92,-18.3 28.51,-21.52 40.34,-9.42c0.002,0.002 0.005,0.005 0.007,0.007c0.177,0.188 0.175,0.482 -0.005,0.651c-0.001,0.001 -0.001,0.001 -0.002,0.002l-6.64,6c-0.254,0.229 -0.648,0.238 -0.93,0.02c-4.927,-3.767 -9.7,-4.81 -14.32,-3.13c-6.83,2.48 -9.26,10.67 -5.86,16.82c2.793,5.06 7.78,6.87 14.96,5.43c1.22,-0.247 1.833,-0.977 1.84,-2.19l0.02,-9.24c0.005,-0.369 0.302,-0.67 0.66,-0.67l8.73,0c0.004,0 0.007,0 0.011,0c0.473,0.006 0.859,0.397 0.859,0.87l-0,15.84c0.001,0.365 -0.19,0.704 -0.5,0.89c-17.68,10.71 -44.47,2.86 -39.17,-21.88Z" style="fill-rule:nonzero;"/><path d="M270.57,60.69l18.62,0.12c0.274,0 0.5,0.226 0.5,0.5l0.13,8.06c0,0.002 0,0.003 0,0.005c0.003,0.34 -0.274,0.622 -0.615,0.625c-0.001,-0 -0.003,0 -0.005,0l-30.53,0c-0.002,0 -0.003,-0 -0.005,-0c-0.365,-0.003 -0.665,-0.304 -0.665,-0.67l0,-40.16c0,-0.003 0,-0.006 0,-0.01c0.005,-0.501 0.419,-0.91 0.92,-0.91l10.19,0c0.488,0 0.89,0.406 0.89,0.9l0.06,31.03c0,0.28 0.23,0.51 0.51,0.51Z" style="fill-rule:nonzero;"/><path d="M782.53,59.82c-0.31,-1.69 -7.55,-2.25 -9.12,-2.59c-2.807,-0.6 -4.923,-1.41 -6.35,-2.43c-5.81,-4.16 -3.78,-11.78 1.75,-15.09c6.54,-3.91 15.56,-2.96 22.56,-0.22c0.005,0.002 0.011,0.004 0.016,0.007c0.42,0.175 0.618,0.674 0.438,1.104c-0.001,0.003 -0.003,0.006 -0.004,0.009l-2.65,5.98c-0.003,0.006 -0.005,0.012 -0.008,0.018c-0.247,0.539 -0.889,0.781 -1.422,0.536c-0.004,-0.001 -0.007,-0.003 -0.01,-0.004c-3.4,-1.63 -9.13,-2.97 -12.48,-1.11c-2.52,1.4 -0.04,2.87 1.49,3.13c5.04,0.82 11.35,1.56 14.67,5.4c3.67,4.25 1.65,10.3 -2.82,13.15c-6.82,4.35 -17.56,3.13 -24.54,0.06c-0.006,-0.002 -0.011,-0.005 -0.017,-0.007c-0.645,-0.292 -0.932,-1.07 -0.637,-1.725c0.002,-0.003 0.003,-0.005 0.004,-0.008l2.6,-5.74c0.003,-0.007 0.007,-0.014 0.01,-0.021c0.219,-0.455 0.765,-0.653 1.21,-0.439c0.007,0.003 0.013,0.007 0.02,0.01c4.14,2.107 8.637,2.903 13.49,2.39c1.467,-0.16 2.067,-0.963 1.8,-2.41Z" style="fill-rule:nonzero;"/><path d="M365.07,40.35c0.06,0.633 0.317,0.757 0.77,0.37c2.867,-2.467 6.007,-3.623 9.42,-3.47c0.272,0.011 0.49,0.238 0.49,0.51l0,8.44c0,0.012 -0,0.024 -0.001,0.036c-0.018,0.587 -0.516,1.054 -1.103,1.036c-0.012,-0.001 -0.024,-0.001 -0.036,-0.002c-6.24,-0.373 -9.287,2.453 -9.14,8.48c0.113,4.527 0.067,9.05 -0.14,13.57c-0.011,0.293 -0.238,0.529 -0.51,0.53l-9.88,0c-0.28,0 -0.51,-0.239 -0.51,-0.53l-0.13,-31.01c0,-0.002 0,-0.003 0,-0.005c0.003,-0.285 0.235,-0.518 0.515,-0.515c0.001,-0 0.003,-0 0.005,0l9.5,0.11c0.298,0.004 0.55,0.233 0.58,0.53l0.17,1.92Z" style="fill-rule:nonzero;"/><path d="M399.44,66.64c-0.327,0.113 -0.57,0.347 -0.73,0.7c-0.155,0.354 -0.354,0.624 -0.56,0.76c-7.56,5.05 -21.46,1.76 -19.65,-9.35c1.23,-7.54 12.65,-8.68 18.25,-7.75c2.553,0.42 3.04,-0.52 1.46,-2.82c-0.733,-1.073 -1.733,-1.76 -3,-2.06c-3.647,-0.84 -7.293,-0.17 -10.94,2.01c-0.013,0.008 -0.025,0.015 -0.038,0.022c-0.391,0.212 -0.884,0.069 -1.094,-0.316c-0.006,-0.012 -0.012,-0.024 -0.018,-0.036l-3.06,-6.48c-0.131,-0.276 -0.011,-0.615 0.27,-0.76c10.39,-5.41 29.96,-6.05 30.1,10.69c0.047,5.5 0.07,11.367 0.07,17.6c-0,0.002 -0,0.004 -0,0.006c-0.003,0.609 -0.484,1.107 -1.066,1.104c-0.001,0 -0.003,0 -0.004,0l-8.74,-0.11c-0.305,-0.004 -0.559,-0.236 -0.58,-0.53l-0.18,-2.26c-0.001,-0.022 -0.004,-0.043 -0.008,-0.064c-0.042,-0.238 -0.237,-0.405 -0.432,-0.37c-0.017,0.003 -0.034,0.008 -0.05,0.014Zm-9.62,-8.03c-2.53,6.34 10.1,6.45 9.44,-0.94c-0.036,-0.436 -0.379,-0.788 -0.81,-0.83c-2.88,-0.273 -5.31,-0.097 -7.29,0.53c-0.613,0.189 -1.106,0.646 -1.34,1.24Z" style="fill-rule:nonzero;"/><path d="M428.57,40.46c0.053,0.58 0.29,0.69 0.71,0.33c2.993,-2.58 6.313,-3.76 9.96,-3.54c0.188,0.011 0.336,0.176 0.33,0.37l-0.06,8.33c-0,0.018 -0.001,0.035 -0.002,0.053c-0.038,0.751 -0.673,1.338 -1.407,1.301c-0.017,-0.001 -0.034,-0.002 -0.051,-0.004c-3.4,-0.307 -5.857,0.537 -7.37,2.53c-2.73,3.58 -1.76,14.4 -1.65,19.24c0,0.005 0,0.01 0,0.014c0.004,0.472 -0.364,0.863 -0.814,0.866c-0.005,0 -0.011,0 -0.016,0l-9.76,-0.1c-0.282,-0.005 -0.51,-0.243 -0.51,-0.53l-0.13,-31.01c0,-0.002 0,-0.003 0,-0.005c0.003,-0.285 0.235,-0.518 0.515,-0.515c0.001,-0 0.003,-0 0.005,0l9.5,0.11c0.305,0.004 0.559,0.236 0.58,0.53l0.17,2.03Z" style="fill-rule:nonzero;"/><path d="M534.04,53.8c0,9.2 -8.274,16.77 -18.33,16.77c-10.056,-0 -18.33,-7.57 -18.33,-16.77c0,-9.2 8.274,-16.77 18.33,-16.77c10.056,0 18.33,7.57 18.33,16.77Zm-18.361,7.75c3.758,0.02 6.869,-3.463 6.891,-7.714c-0,-0 -0,-0 -0,-0c0.022,-4.252 -3.052,-7.766 -6.809,-7.786c-3.758,-0.02 -6.869,3.463 -6.891,7.714c0,0 0,0 0,0c-0.022,4.252 3.052,7.766 6.809,7.786Z" style="fill-rule:nonzero;"/><path d="M646.3,66.88c-4.387,3.6 -9.037,4.563 -13.95,2.89c-5.9,-2.01 -9.61,-7.75 -6.07,-13.59c3.31,-5.45 11.61,-5.8 17.27,-5.11c2.267,0.273 2.793,-0.56 1.58,-2.5c-2.88,-4.6 -10.37,-2.74 -14.22,-0.47c-0.01,0.006 -0.02,0.012 -0.03,0.017c-0.405,0.22 -0.923,0.06 -1.148,-0.355c-0.004,-0.007 -0.008,-0.015 -0.012,-0.022l-3.02,-6.1c-0.001,-0.002 -0.002,-0.004 -0.003,-0.006c-0.209,-0.423 -0.033,-0.943 0.39,-1.152c0.001,-0.001 0.002,-0.001 0.003,-0.002c6.36,-3.107 12.83,-4.017 19.41,-2.73c13.82,2.71 10.9,21.05 10.73,31.12c-0.011,0.605 -0.492,1.095 -1.07,1.09l-8.98,-0.11c-0.325,-0.005 -0.589,-0.243 -0.59,-0.53l0,-2.26c0,-0.273 -0.097,-0.333 -0.29,-0.18Zm-10.17,-7.48c-0.69,5.53 10.15,5.6 9.49,-1.96c-0.03,-0.296 -0.264,-0.534 -0.56,-0.57c-1.993,-0.253 -4.27,-0.15 -6.83,0.31c-1.24,0.227 -1.94,0.967 -2.1,2.22Z" style="fill-rule:nonzero;"/><path d="M675.72,40.15c6.08,-4.15 14.53,-4.29 19.19,1.6c0.001,0.001 0.002,0.003 0.003,0.004c0.142,0.168 0.396,0.19 0.564,0.048c0.001,-0 0.002,-0.001 0.003,-0.002c9.26,-8.16 23.76,-5.6 24,8.7c0.107,6.273 0.057,12.547 -0.15,18.82c-0.01,0.29 -0.236,0.524 -0.51,0.53l-9.73,0.12c-0.002,0 -0.004,0 -0.005,0c-0.456,0.002 -0.832,-0.388 -0.835,-0.866c0,-0.001 0,-0.003 -0,-0.004c-0,-5.04 1.04,-14.89 -0.55,-19.27c-2.09,-5.77 -9.9,-3.03 -9.92,2.92c-0.02,5.087 -0.03,10.57 -0.03,16.45c-0,0.439 -0.361,0.8 -0.8,0.8l-9.83,0c-0.477,0 -0.87,-0.393 -0.87,-0.87l-0,-15.41c-0,-9.97 -10.41,-8.65 -10.46,-0.72c-0.027,5.5 -0.04,10.877 -0.04,16.13c-0,0.477 -0.393,0.87 -0.87,0.87l-9.75,0c-0.477,-0 -0.87,-0.388 -0.87,-0.86l0.17,-30.71c-0,-0.296 0.226,-0.54 0.5,-0.54l9.64,0.01c0.306,-0.001 0.564,0.235 0.59,0.54l0.15,1.49c0.002,0.024 0.007,0.047 0.015,0.07c0.051,0.145 0.203,0.226 0.338,0.179c0.02,-0.007 0.039,-0.017 0.057,-0.029Z" style="fill-rule:nonzero;"/><path d="M737.43,57.04c-0.74,0.013 -0.867,0.31 -0.38,0.89c3.953,4.673 8.713,5.207 14.28,1.6c0.39,-0.254 0.899,-0.203 1.2,0.12l4.73,5.09c0.018,0.019 0.034,0.039 0.05,0.059c0.339,0.432 0.251,1.074 -0.193,1.423c-0.022,0.017 -0.044,0.033 -0.067,0.048c-6.407,4.313 -13.107,5.31 -20.1,2.99c-19.35,-6.42 -13.28,-33.3 7.06,-32.06c10.13,0.62 17.09,7.94 16.11,18.53c-0.056,0.594 -0.573,1.054 -1.19,1.06l-21.5,0.25Zm-0.45,-8.22c-0.853,1.193 -0.567,1.797 0.86,1.81l10.88,0.1c0.034,-0 0.068,-0.003 0.102,-0.008c0.369,-0.059 0.622,-0.416 0.563,-0.789c-0.006,-0.035 -0.014,-0.069 -0.025,-0.103c-2.02,-6.25 -8.87,-5.9 -12.38,-1.01Z" style="fill-rule:nonzero;"/><path d="M305.26,38.35c0,-0.331 -0.269,-0.6 -0.6,-0.6l-10.06,0c-0.331,0 -0.6,0.269 -0.6,0.6l0,31.06c0,0.331 0.269,0.6 0.6,0.6l10.06,0c0.331,0 0.6,-0.269 0.6,-0.6l0,-31.06Z"/><path d="M460.2,56.67c0.18,0.44 0.36,0.437 0.54,-0.01l7.3,-18.26c0.156,-0.391 0.541,-0.65 0.97,-0.65l9.31,-0c0.039,-0 0.078,0.003 0.116,0.011c0.301,0.061 0.499,0.359 0.438,0.66c-0.008,0.037 -0.019,0.074 -0.034,0.109c-3.607,8.527 -7.15,17.027 -10.63,25.5c-5.47,13.33 -10.29,23.05 -26.39,15.66c-0.004,-0.002 -0.008,-0.004 -0.012,-0.006c-0.338,-0.158 -0.484,-0.57 -0.323,-0.913c0.001,-0.004 0.003,-0.007 0.005,-0.011l3.27,-6.59c0.011,-0.021 0.022,-0.042 0.034,-0.062c0.272,-0.458 0.864,-0.616 1.312,-0.35c0.022,0.013 0.043,0.027 0.064,0.042c2.113,1.487 4.323,1.72 6.63,0.7c1.467,-0.653 1.89,-1.713 1.27,-3.18l-13.04,-31c-0.011,-0.026 -0.019,-0.053 -0.025,-0.08c-0.045,-0.22 0.094,-0.438 0.309,-0.482c0.029,-0.006 0.057,-0.009 0.086,-0.008l10.27,-0c0.471,-0 0.902,0.292 1.09,0.74l7.44,18.18Z" style="fill-rule:nonzero;"/><path d="M580.66,111l-0.01,-12.56c0,-0.292 0.242,-0.535 0.54,-0.54l9.97,-0.12c0.002,-0 0.004,-0 0.005,-0c0.456,-0.002 0.833,0.384 0.835,0.856c-0,0.001 -0,0.003 0,0.004l0,42.69c-0,0.368 -0.302,0.67 -0.67,0.67c-2.85,0 -5.81,-0.16 -8.62,0.08c-1.3,0.113 -1.777,-0.627 -1.43,-2.22c0.153,-0.687 -0.06,-0.827 -0.64,-0.42c-3.673,2.607 -7.477,3.583 -11.41,2.93c-17.99,-2.98 -18.18,-30.25 0.29,-33c3.713,-0.553 7.107,0.18 10.18,2.2c0.64,0.42 0.96,0.23 0.96,-0.57Zm-6.728,22.57c3.747,0.032 6.861,-3.439 6.898,-7.69c0.037,-4.252 -3.016,-7.777 -6.762,-7.81c-3.747,-0.032 -6.861,3.439 -6.898,7.69c-0.037,4.252 3.016,7.777 6.762,7.81Z" style="fill-rule:nonzero;"/><path d="M394.14,125.75c-1.01,22.97 -37.63,23.05 -38.89,-0.25c-0.407,-7.453 -0.433,-15.64 -0.08,-24.56c0.011,-0.299 0.242,-0.539 0.52,-0.54l10.62,0c0.278,0.001 0.509,0.241 0.52,0.54c0.173,6.92 0.24,13.843 0.2,20.77c-0.02,3.12 0.19,5.29 0.63,6.51c3.02,8.32 14.91,5.58 14.99,-3.72c0.067,-7.747 0.1,-15.61 0.1,-23.59c0,-0.361 0.297,-0.659 0.658,-0.66c0,0 0.001,0 0.002,0l10.44,0c0.347,-0 0.635,0.283 0.64,0.63c0.12,8.58 0.003,16.87 -0.35,24.87Z" style="fill-rule:nonzero;"/><path d="M480.81,110.71l5.76,0.02c0.002,0 0.003,0 0.005,0c0.62,0.009 1.123,0.485 1.115,1.056c0,0.001 0,0.003 -0,0.004l-0.08,6.77c-0,0.289 -0.241,0.529 -0.54,0.54l-6.26,0.22c-0.278,0.005 -0.504,0.223 -0.51,0.49c-0.13,5.25 -2.38,16.08 6.42,13.4c0.296,-0.087 0.6,0.047 0.68,0.3l2.25,6.74c0.093,0.27 -0.064,0.583 -0.36,0.72c-3.407,1.58 -7.17,1.923 -11.29,1.03c-11.6,-2.52 -8.17,-13.12 -9.07,-21.48c-0.003,-0.025 -0.006,-0.049 -0.01,-0.073c-0.138,-0.906 -0.997,-1.537 -1.903,-1.399c-0.022,0.004 -0.045,0.008 -0.067,0.012c-1.933,0.38 -2.86,-0.057 -2.78,-1.31c0.14,-2.13 0.02,-4.2 0.22,-6.32c0.027,-0.285 0.255,-0.513 0.54,-0.54l3.38,-0.28c0.308,-0.026 0.549,-0.266 0.55,-0.55l0.09,-6.55c0.011,-0.533 0.416,-0.965 0.9,-0.96l9.71,0.1c0.291,0.005 0.53,0.244 0.54,0.54l0.22,7c0.005,0.287 0.225,0.52 0.49,0.52Z" style="fill-rule:nonzero;"/><path d="M649.55,119.82c-0.07,3.28 -0.47,8.93 0.05,11.24c0.553,2.44 2.583,3.127 6.09,2.06c0.383,-0.117 0.797,0.097 0.93,0.48l2.25,6.49c0.141,0.411 -0.059,0.861 -0.45,1.01c-4.573,1.76 -9.11,1.873 -13.61,0.34c-8.23,-2.81 -6.97,-14.21 -6.79,-21.28c0,-0.002 0,-0.003 0,-0.005c0.013,-0.51 -0.446,-0.941 -1.017,-0.955c-0.001,0 -0.002,0 -0.003,0l-3.08,-0.05c-0.298,-0.005 -0.54,-0.275 -0.54,-0.6l0,-7.12c0.005,-0.32 0.247,-0.58 0.54,-0.58l3.15,-0.05c0.512,-0.005 0.929,-0.387 0.93,-0.85l0,-6.46c0,-0.54 0.442,-0.985 0.981,-0.99c0.003,0 0.006,-0 0.009,-0l9.85,-0c0.362,-0 0.66,0.298 0.66,0.66l0,6.71c0,0.501 0.436,0.915 0.97,0.92l5.59,0.09c0.3,0.005 0.545,0.25 0.55,0.55l0.1,7c0.005,0.45 -0.388,0.824 -0.87,0.83l-5.78,0.04c-0.276,0 -0.505,0.233 -0.51,0.52Z" style="fill-rule:nonzero;"/><path d="M413.22,112.14c12.42,-8.88 26.44,2.13 24.48,16.35c-1.61,11.74 -13.88,18.15 -24.02,11.18c-0.287,-0.193 -0.43,-0.117 -0.43,0.23l-0,12.94c-0,0.361 -0.297,0.659 -0.658,0.66c-0,-0 -0.001,0 -0.002,0l-10.34,0c-0.274,0 -0.5,-0.226 -0.5,-0.5l-0,-42.69c-0,-0.307 0.248,-0.56 0.55,-0.56l9.63,0.05c0.342,-0.001 0.629,0.205 0.67,0.48l0.24,1.65c0.003,0.021 0.008,0.042 0.015,0.062c0.051,0.139 0.194,0.217 0.318,0.172c0.016,-0.006 0.032,-0.014 0.047,-0.024Zm6.658,21.43c3.752,-0.033 6.809,-3.558 6.772,-7.81c-0.037,-4.251 -3.155,-7.722 -6.908,-7.69c-3.752,0.033 -6.809,3.558 -6.772,7.81c0.037,4.251 3.155,7.722 6.908,7.69Z" style="fill-rule:nonzero;"/><path d="M528.02,125.8c0,9.205 -8.274,16.78 -18.33,16.78c-10.056,0 -18.33,-7.575 -18.33,-16.78c0,-9.205 8.274,-16.78 18.33,-16.78c10.056,0 18.33,7.575 18.33,16.78Zm-18.452,7.749c0,0 0,0 0,0c3.758,0.059 6.904,-3.386 6.971,-7.631c0.067,-4.246 -2.97,-7.788 -6.727,-7.847c-0,-0 -0,-0 -0,-0c-3.758,-0.059 -6.904,3.386 -6.971,7.631c-0.067,4.246 2.97,7.788 6.727,7.847Z" style="fill-rule:nonzero;"/><path d="M618.14,138.79c-0.3,0.68 -0.793,1.21 -1.48,1.59c-17.31,9.44 -29.2,-14.93 -7.99,-17.3c3.32,-0.373 5.763,-0.4 7.33,-0.08c2.12,0.433 2.633,-0.367 1.54,-2.4c-0.533,-0.987 -1.327,-1.683 -2.38,-2.09c-3.747,-1.44 -7.627,-0.93 -11.64,1.53c-0.015,0.009 -0.03,0.018 -0.045,0.026c-0.506,0.276 -1.155,0.075 -1.439,-0.445c-0.009,-0.017 -0.018,-0.034 -0.026,-0.051l-2.8,-5.84c-0,-0 -0,-0.001 -0.001,-0.001c-0.242,-0.51 -0.034,-1.123 0.461,-1.359c10.57,-5.07 29.7,-5.76 29.78,10.88c0.033,5.92 0.05,11.95 0.05,18.09c-0,0.362 -0.298,0.66 -0.66,0.66l-9.05,0c-0.053,0 -0.105,-0.004 -0.157,-0.011c-0.559,-0.084 -0.95,-0.612 -0.866,-1.171c0.007,-0.05 0.018,-0.1 0.033,-0.148c0.32,-1.053 0.3,-1.76 -0.06,-2.12c-0.014,-0.015 -0.03,-0.027 -0.047,-0.038c-0.154,-0.095 -0.388,0 -0.517,0.21c-0.013,0.022 -0.026,0.045 -0.036,0.068Zm-9.48,-7.95c-1.24,6.52 10.02,6.03 9.45,-1.41c-0.025,-0.292 -0.25,-0.529 -0.54,-0.57c-2.653,-0.407 -5.263,-0.163 -7.83,0.73c-0.556,0.191 -0.969,0.669 -1.08,1.25Z" style="fill-rule:nonzero;"/><path d="M669.45,140.16c-18.03,-9.11 -7.16,-34.52 12.74,-30.61c9.22,1.82 13.45,8.71 13.29,17.96c-0.011,0.684 -0.576,1.24 -1.26,1.24l-21.09,0c-0.054,0 -0.108,0.006 -0.161,0.017c-0.424,0.089 -0.699,0.512 -0.61,0.936c0.012,0.054 0.029,0.107 0.051,0.157c2.37,5.32 10,4.5 14.12,1.79c0.413,-0.269 0.936,-0.231 1.23,0.09l4.9,5.28c0.185,0.206 0.145,0.552 -0.09,0.77c-6.01,5.64 -16.03,5.96 -23.12,2.37Zm2.71,-19.02c-0.687,1.04 -0.41,1.563 0.83,1.57l11.15,0.04c0.043,0 0.086,-0.004 0.128,-0.012c0.366,-0.071 0.609,-0.435 0.537,-0.806c-0.008,-0.042 -0.02,-0.083 -0.035,-0.122c-2.4,-6.09 -9.03,-6.16 -12.61,-0.67Z" style="fill-rule:nonzero;"/><path d="M460.52,120.99c0,-0.143 -0.117,-0.26 -0.26,-0.26l-16.74,0c-0.143,0 -0.26,0.117 -0.26,0.26l0,8c0,0.143 0.117,0.26 0.26,0.26l16.74,0c0.143,0 0.26,-0.117 0.26,-0.26l0,-8Z"/><path d="M550.497,121.265c0,-0.287 -0.233,-0.52 -0.52,-0.521l-16.44,-0.028c-0.287,-0.001 -0.52,0.232 -0.52,0.519l-0.014,7.48c-0,0.287 0.233,0.52 0.52,0.521l16.44,0.028c0.287,0.001 0.52,-0.232 0.52,-0.519l0.014,-7.48Z"/><path d="M368.3,193.059c-0,0 0,0 0,0c0.021,11.976 -10.493,21.849 -23.292,21.871c0,-0 0,0 0,0c-12.798,0.022 -23.347,-9.814 -23.368,-21.789c0,-0 -0,-0 -0,-0c-0.021,-11.976 10.493,-21.849 23.292,-21.871c-0,0 -0,-0 -0,-0c12.798,-0.022 23.347,9.814 23.368,21.789Zm-23.163,12.03c6.215,-0.087 11.254,-5.566 11.162,-12.137c-0.092,-6.572 -5.281,-11.908 -11.496,-11.821c-0,0 -0,0 -0,0c-6.215,0.087 -11.254,5.566 -11.162,12.137c0.092,6.572 5.281,11.908 11.496,11.821c0,-0 0,-0 0,-0Z" style="fill-rule:nonzero;"/><path d="M515.73,193.9c-8.09,-5.48 -5.23,-17.16 3.41,-20.37c8.407,-3.113 16.747,-2.67 25.02,1.33c0.291,0.139 0.419,0.497 0.29,0.81l-2.97,7.13c-0.008,0.019 -0.017,0.039 -0.026,0.058c-0.266,0.553 -0.925,0.798 -1.459,0.541c-0.018,-0.009 -0.037,-0.019 -0.055,-0.029c-4.42,-2.48 -12.02,-4.18 -16.34,-1.23c-0.278,0.194 -0.48,0.469 -0.57,0.78c-0.62,2.2 0.293,3.62 2.74,4.26c6.733,1.773 10.81,2.88 12.23,3.32c8.45,2.61 11.09,12.72 5.06,19.06c-7.41,7.81 -22.74,5.7 -31.62,1.45c-0.72,-0.343 -1.032,-1.234 -0.7,-2l3.02,-6.82c0.008,-0.017 0.016,-0.034 0.025,-0.051c0.214,-0.402 0.709,-0.563 1.096,-0.357c0.017,0.008 0.033,0.018 0.049,0.028c4.86,3.047 10.093,4.213 15.7,3.5c5.8,-0.74 5.02,-5.03 0,-6.44c-4.85,-1.36 -10.69,-2.11 -14.9,-4.97Z" style="fill-rule:nonzero;"/><path d="M385.2,184.14c8.57,-6.44 21.39,-1.85 24.07,7.97c1.267,4.66 1.037,9.043 -0.69,13.15c-3.66,8.71 -14.71,12.04 -22.9,6.41c-0.287,-0.193 -0.43,-0.117 -0.43,0.23l0,12.95c0,0.357 -0.289,0.65 -0.64,0.65l-9.91,-0.05c-0.386,-0.005 -0.7,-0.329 -0.7,-0.72l0,-41.83c0,-0.002 0,-0.004 0,-0.006c0.003,-0.609 0.484,-1.107 1.066,-1.104c0.001,-0 0.003,-0 0.004,0l9,0.11c0.347,0.004 0.633,0.23 0.66,0.52l0.14,1.53c0.027,0.273 0.137,0.337 0.33,0.19Zm6.627,21.45c3.746,0.007 6.836,-3.487 6.843,-7.738c-0,-0 -0,-0 -0,-0c0.007,-4.252 -3.07,-7.755 -6.816,-7.762c-0,0 -0,0 -0.001,0c-3.746,-0.007 -6.836,3.487 -6.843,7.738c0,0 0,0 -0,0c-0.007,4.252 3.07,7.755 6.816,7.762c0,-0 0,-0 0,0Z" style="fill-rule:nonzero;"/><path d="M425.2,201.71c2.38,5.6 10.48,4.67 14.64,1.83c0.251,-0.173 0.582,-0.147 0.77,0.06l4.91,5.27c0.001,0.002 0.003,0.003 0.004,0.005c0.248,0.271 0.219,0.708 -0.065,0.967c-0.003,0.002 -0.006,0.005 -0.009,0.008c-9.74,8.67 -29.19,5.1 -31.78,-8.94c-4.52,-24.47 37.08,-27.58 34.6,-0.87c-0.041,0.402 -0.381,0.712 -0.78,0.71l-21.65,-0c-0.048,-0 -0.096,0.004 -0.143,0.014c-0.371,0.075 -0.614,0.443 -0.538,0.814c0.009,0.045 0.023,0.089 0.041,0.132Zm12.46,-7.45c-2.03,-6.59 -11.34,-6.88 -12.92,-0.22c-0.005,0.021 -0.008,0.042 -0.011,0.063c-0.036,0.316 0.194,0.607 0.51,0.643c0.023,0.003 0.047,0.004 0.071,0.004l11.98,-0c0.021,0 0.041,-0.001 0.062,-0.004c0.206,-0.03 0.351,-0.225 0.32,-0.431c-0.003,-0.019 -0.007,-0.037 -0.012,-0.055Z" style="fill-rule:nonzero;"/><path d="M464.58,184.61c0.57,0.42 1.17,-0.51 1.59,-0.8c6.43,-4.49 16.8,-3.35 20.37,3.94c2.79,5.7 1.82,18.09 1.7,25.32c-0.011,0.514 -0.436,0.93 -0.95,0.93l-9.87,0c-0.001,0 -0.002,-0 -0.002,-0c-0.367,-0.001 -0.668,-0.303 -0.668,-0.67l0,-17.58c0,-5.88 -7.99,-6.61 -10.6,-2.08c-2.15,3.74 -1.23,14.57 -1.12,19.4c0,0.005 0,0.01 0,0.014c0.004,0.472 -0.364,0.863 -0.814,0.866c-0.005,0 -0.011,0 -0.016,0l-9.76,-0.1c-0.282,-0.005 -0.51,-0.248 -0.51,-0.54l-0.18,-31.05c0,-0.28 0.235,-0.51 0.52,-0.51c2.88,-0 5.85,0.12 8.73,-0.06c1.453,-0.087 1.93,0.613 1.43,2.1c-0.114,0.332 -0.053,0.665 0.15,0.82Z" style="fill-rule:nonzero;"/><path d="M585.84,197.778c-0,-0 0,0 0,0c0.016,9.205 -8.245,16.794 -18.301,16.812c0,-0 0,0 0,0c-10.055,0.018 -18.343,-7.543 -18.359,-16.748c0,0 -0,-0 -0,-0c-0.016,-9.205 8.245,-16.794 18.301,-16.812c-0,0 -0,-0 -0,-0c10.055,-0.018 18.343,7.543 18.359,16.748Zm-18.344,7.792c3.775,0.007 6.887,-3.486 6.894,-7.738c-0,0 0,-0 0,-0c0.007,-4.252 -3.092,-7.755 -6.866,-7.762c-0,0 -0,0 -0,0c-3.775,-0.007 -6.887,3.486 -6.894,7.738c0,-0 -0,0 -0,0c-0.007,4.252 3.092,7.755 6.866,7.762c0,-0 0,-0 0,0Z" style="fill-rule:nonzero;"/><path d="M643.69,184.63c2.847,-2.253 5.99,-3.38 9.43,-3.38c0.002,0 0.003,0 0.005,0c0.477,0.003 0.867,0.388 0.865,0.855c0,0.001 0,0.003 0,0.005l-0.03,7.93c-0,0.014 -0,0.027 -0.001,0.041c-0.025,0.696 -0.633,1.247 -1.345,1.221c-0.015,-0 -0.03,-0.001 -0.044,-0.002c-3.16,-0.207 -5.497,0.547 -7.01,2.26c-2.92,3.3 -1.91,15.25 -1.99,19.75c-0.005,0.294 -0.232,0.534 -0.51,0.54l-9.97,0.12c-0.002,0 -0.004,0 -0.005,0c-0.456,0.002 -0.833,-0.384 -0.835,-0.856c0,-0.001 0,-0.003 0,-0.004l0,-30.73c0,-0.002 0,-0.003 0,-0.005c0.003,-0.329 0.263,-0.598 0.575,-0.595c0.002,-0 0.003,-0 0.005,0l9.74,0.13c0.276,0 0.509,0.229 0.53,0.52l0.17,2.02c0.027,0.32 0.167,0.38 0.42,0.18Z" style="fill-rule:nonzero;"/><path d="M657.55,191.83c4.98,-12.24 25.51,-15.25 32.1,-2.83c0.002,0.004 0.004,0.008 0.006,0.012c0.24,0.456 0.094,1.013 -0.324,1.232c-0.004,0.002 -0.008,0.004 -0.012,0.006l-7.6,3.83c-0.247,0.118 -0.563,0.005 -0.73,-0.26c-2.74,-4.26 -8.54,-5.15 -11.63,-0.92c-6.01,8.26 5.55,18.31 11.69,8.83c0.159,-0.241 0.469,-0.331 0.72,-0.21l7.55,3.67c0.005,0.002 0.01,0.005 0.015,0.008c0.43,0.219 0.598,0.765 0.371,1.21c-0.002,0.004 -0.004,0.008 -0.006,0.012c-9.13,16.96 -40.27,5.36 -32.15,-14.59Z" style="fill-rule:nonzero;"/><path d="M692.71,202.29c-7.17,-23.22 34.57,-31.81 34.29,-2.34c-0.005,0.441 -0.369,0.8 -0.81,0.8l-21.7,0c-1.127,0 -1.323,0.43 -0.59,1.29c3.893,4.567 8.65,5.083 14.27,1.55c0.375,-0.233 0.865,-0.179 1.18,0.13l4.91,4.92c0.148,0.145 0.231,0.343 0.231,0.55c0,0.207 -0.083,0.405 -0.231,0.55c-9.06,8.94 -27.62,5.29 -31.55,-7.45Zm23.55,-8.25c-1.88,-6.38 -11.43,-6.43 -12.9,-0.26c-0.007,0.029 -0.012,0.059 -0.016,0.089c-0.05,0.431 0.258,0.826 0.683,0.876c0.031,0.003 0.062,0.005 0.093,0.005l11.61,-0c0.028,0 0.055,-0.002 0.082,-0.006c0.299,-0.043 0.509,-0.324 0.466,-0.622c-0.004,-0.028 -0.01,-0.055 -0.018,-0.082Z" style="fill-rule:nonzero;"/><path d="M613.56,211.14c-9.34,8.08 -22.34,1.8 -22.49,-10.64c-0.08,-6.06 -0.083,-11.997 -0.01,-17.81c0.006,-0.51 0.412,-0.925 0.9,-0.92l9.61,0.14c0.274,0.001 0.504,0.23 0.52,0.52c0.293,6.527 0.347,11.05 0.16,13.57c-0.27,3.58 0.01,7.5 4.03,8.63c10.08,2.83 7.47,-17.13 7.47,-22.32c0,-0.307 0.253,-0.56 0.56,-0.56l9.91,0c0.422,0 0.77,0.343 0.77,0.76l-0.17,30.8c0,0.302 -0.23,0.55 -0.51,0.55l-9.37,0c-0.26,-0.002 -0.49,-0.236 -0.54,-0.55l-0.34,-2.02c-0.053,-0.333 -0.22,-0.383 -0.5,-0.15Z" style="fill-rule:nonzero;"/></svg>